<?xml version="1.0" encoding="UTF-8"?>
<svg width="98px" height="36px" viewBox="0 0 98 36" version="1.1" xmlns="http://www.w3.org/2000/svg" xmlns:xlink="http://www.w3.org/1999/xlink">
    <title>logo</title>
    <g id="logo" stroke="none" stroke-width="1" fill="none" fill-rule="evenodd">
        <path d="M-2.13162821e-14,36 L-2.13162821e-14,0 L97.7142857,0 L97.7142857,36 L-2.13162821e-14,36 Z M2.57142857,33.4285714 L95.1428571,33.4285714 L95.1428571,2.57142857 L2.57142857,2.57142857 L2.57142857,33.4285714 Z M20.1191143,21.1206857 L20.1191143,7.71428571 L24.8538857,7.71428571 L24.8538857,28.2936857 L19.8846,28.2936857 L12.4755429,15.0644571 L12.4755429,28.2936857 L7.71428571,28.2936857 L7.71428571,7.71428571 L12.6815143,7.71428571 L20.1191143,21.1206857 L20.1191143,21.1206857 Z M31.7239714,22.1826857 C31.8124286,23.8880571 32.5185429,25.3280571 34.8693429,25.3280571 C36.4278857,25.3280571 37.1939143,24.6229714 37.4855143,23.7124286 L41.8973143,23.7124286 C41.4858857,26.3872286 38.9576571,28.5621429 34.9004571,28.5621429 C29.9309143,28.5621429 27.2571429,25.4751429 27.2571429,21.0947143 C27.2571429,16.9498286 29.8735714,13.6285714 34.7829429,13.6285714 C39.2212286,13.6285714 42.0719143,16.6268571 42.0719143,20.0952 C42.0719143,20.6840571 42.0719143,21.3302571 41.9258571,22.1826857 L31.7239714,22.1826857 Z M31.7239714,19.5960857 L37.6626857,19.5960857 C37.6626857,17.7732 36.4587429,16.6268571 34.7518286,16.6268571 C32.9875714,16.6268571 31.7239714,17.6847429 31.7239714,19.5960857 Z M59.6985429,13.9816286 L59.6985429,28.1517429 L55.2008571,28.1517429 L55.2008571,26.1529714 C54.5258571,27.4466571 52.7014286,28.5048 50.8798286,28.5048 C46.7938286,28.5048 43.9714286,25.2995143 43.9714286,21.0661714 C43.9714286,16.8325714 46.7938286,13.6285714 50.8798286,13.6285714 C52.7014286,13.6285714 54.5258571,14.7165429 55.2008571,16.0104857 L55.2008571,13.9816286 L59.6985429,13.9816286 Z M55.2008571,21.0661714 C55.2008571,19.1260286 53.8482857,17.4502286 51.8209714,17.4502286 C49.7931429,17.4502286 48.4408286,19.1260286 48.4408286,21.0661714 C48.4408286,23.0361429 49.7931429,24.6831429 51.8209714,24.6831429 C53.8482857,24.6831429 55.2008571,23.0361429 55.2008571,21.0661714 Z M83.1378857,16.0763143 C83.1378857,18.0285429 81.4597714,18.7310571 79.4039143,18.7310571 C77.0554286,18.7310571 75.6,17.6515714 75.6,15.7507714 L78.1709143,15.7507714 C78.1709143,16.6245429 78.7191429,16.9668 79.4898,16.9668 C80.1216,16.9668 80.5669714,16.7441143 80.5669714,16.1961429 C80.5669714,15.5617714 79.9184571,15.4766571 78.3576,14.9621143 C76.9883143,14.5337143 75.8057143,14.1397714 75.8057143,12.5467714 C75.8057143,10.8339429 77.2279714,10.0285714 79.4540571,10.0285714 C81.8521714,10.0285714 83.0183143,11.2446 83.0183143,12.8208857 L80.4304286,12.8208857 C80.4304286,12.1361143 80.0712,11.7424286 79.3509429,11.7424286 C78.822,11.7424286 78.3743143,11.9820857 78.3743143,12.4786286 C78.3743143,13.0782857 79.0950857,13.1814 80.4834,13.6434857 C81.9385714,14.0716286 83.1378857,14.4655714 83.1378857,16.0763143 L83.1378857,16.0763143 Z M90.0635143,18.1632857 C89.6711143,18.2314286 89.0868857,18.3008571 88.3162286,18.3008571 C87.0834857,18.3008571 85.3886571,18.1465714 85.3886571,15.3876857 L85.3886571,11.8591714 L84.0857143,11.8591714 L84.0857143,9.90565714 L85.3886571,9.90565714 L85.3886571,7.45714286 L87.9901714,7.45714286 L87.9901714,9.90565714 L89.8745143,9.90565714 L89.8745143,11.8591714 L87.9901714,11.8591714 L87.9901714,14.8060286 C87.9901714,16.0220571 88.4718,16.2097714 89.1223714,16.2097714 C89.4484286,16.2097714 89.8241143,16.1930571 90.0635143,16.1583429 L90.0635143,18.1632857 L90.0635143,18.1632857 Z M72.6629143,18.2093143 C72.0452571,18.0622286 71.6628857,18.0036 71.1331714,18.0036 C68.6036571,18.0036 66.9857143,19.2684857 66.9857143,22.7687143 L66.9857143,28.2985714 L62.4857143,28.2985714 L62.4857143,14.121 L66.9857143,14.121 L66.9857143,16.4152286 C67.6332,15.0914571 69.3095143,13.8857143 71.3684571,13.8857143 C71.8390286,13.8857143 72.2512286,13.9440857 72.6629143,14.121 L72.6629143,18.2093143 L72.6629143,18.2093143 Z" id="nearst-2018" fill="#0A091A" fill-rule="nonzero"></path>
    </g>
</svg>