<?xml version="1.0" encoding="UTF-8"?>
<svg width="512px" height="512px" viewBox="0 0 512 512" version="1.1" xmlns="http://www.w3.org/2000/svg" xmlns:xlink="http://www.w3.org/1999/xlink">
    <title>icon</title>
    <g id="icon" stroke="none" stroke-width="1" fill="none" fill-rule="evenodd">
        <rect fill="#171F7F" x="0" y="0" width="512" height="512"></rect>
        <path d="M66,326 L66,186 L446,186 L446,326 L66,326 Z M76,316 L436,316 L436,196 L76,196 L76,316 Z M144.241,268.136 L144.241,216 L162.654,216 L162.654,296.031 L143.329,296.031 L114.516,244.584 L114.516,296.031 L96,296.031 L96,216 L115.317,216 L144.241,268.136 M189.371,272.266 C189.715,278.898 192.461,284.498 201.603,284.498 C207.664,284.498 210.643,281.756 211.777,278.215 L228.934,278.215 C227.334,288.617 217.502,297.075 201.724,297.075 C182.398,297.075 172,285.07 172,268.035 C172,251.916 182.175,239 201.267,239 C218.527,239 229.613,250.66 229.613,264.148 C229.613,266.438 229.613,268.951 229.045,272.266 L189.371,272.266 Z M189.371,262.207 L212.466,262.207 C212.466,255.118 207.784,250.66 201.146,250.66 C194.285,250.66 189.371,254.774 189.371,262.207 Z M298.161,240.373 L298.161,295.479 L280.67,295.479 L280.67,287.706 C278.045,292.737 270.95,296.852 263.866,296.852 C247.976,296.852 237,284.387 237,267.924 C237,251.46 247.976,239 263.866,239 C270.95,239 278.045,243.231 280.67,248.263 L280.67,240.373 L298.161,240.373 Z M280.67,267.924 C280.67,260.379 275.41,253.862 267.526,253.862 C259.64,253.862 254.381,260.379 254.381,267.924 C254.381,275.585 259.64,281.99 267.526,281.99 C275.41,281.99 280.67,275.585 280.67,267.924 Z M389.314,248.519 C389.314,256.111 382.788,258.843 374.793,258.843 C365.66,258.843 360,254.645 360,247.253 L369.998,247.253 C369.998,250.651 372.13,251.982 375.127,251.982 C377.584,251.982 379.316,251.116 379.316,248.985 C379.316,246.518 376.794,246.187 370.724,244.186 C365.399,242.52 360.8,240.988 360.8,234.793 C360.8,228.132 366.331,225 374.988,225 C384.314,225 388.849,229.729 388.849,235.859 L378.785,235.859 C378.785,233.196 377.388,231.665 374.587,231.665 C372.53,231.665 370.789,232.597 370.789,234.528 C370.789,236.86 373.592,237.261 378.991,239.058 C384.65,240.723 389.314,242.255 389.314,248.519 M416.247,256.635 C414.721,256.9 412.449,257.17 409.452,257.17 C404.658,257.17 398.067,256.57 398.067,245.841 L398.067,232.119 L393,232.119 L393,224.522 L398.067,224.522 L398.067,215 L408.184,215 L408.184,224.522 L415.512,224.522 L415.512,232.119 L408.184,232.119 L408.184,243.579 C408.184,248.308 410.057,249.038 412.587,249.038 C413.855,249.038 415.316,248.973 416.247,248.838 L416.247,256.635 M348.578,256.814 C346.176,256.242 344.689,256.014 342.629,256.014 C332.792,256.014 326.5,260.933 326.5,274.545 L326.5,296.05 L309,296.05 L309,240.915 L326.5,240.915 L326.5,249.837 C329.018,244.689 335.537,240 343.544,240 C345.374,240 346.977,240.227 348.578,240.915 L348.578,256.814" id="nearst-2018" fill="#FFFFFF" fill-rule="nonzero"></path>
    </g>
</svg>